{"title":"Fist of the North Star (1986) (HQ)","uid":12283114,"size":1222904647,"categoryP":"video","categoryS":"hd___movies","magnet":"?xt=urn:btih:93855b926c9b11c881f4fc5488e5aecc39af6012&amp;dn=Fist+of+the+North+Star+%281986%29+%28HQ%29&amp;tr=udp%3A%2F%2Ftracker.openbittorrent.com%3A80&amp;tr=udp%3A%2F%2Fopen.demonii.com%3A1337&amp;tr=udp%3A%2F%2Ftracker.coppersurfer.tk%3A6969&amp;tr=udp%3A%2F%2Fexodus.desync.com%3A6969","seeders":0,"leechers":1,"uploader":"memz5k","files":1,"time":1440440374,"description":"After a nuclear holocaust tears the world apart, mankind is forced to the harshness of not only the oppression of others who are much more powerful, but the dead earth which seems to be getting worse with every passing moment. But a savior has risen from the ashes, a man who will defeat those who would torment the weak and make the world a livable place once more. A man named Kenshiro.....\n\nVideo\nID : 1\nFormat : AVC\nFormat/Info : Advanced Video Codec\nFormat profile : High@L3\nFormat settings, CABAC : Yes\nFormat settings, ReFrames : 4 frames\nCodec ID : avc1\nCodec ID/Info : Advanced Video Coding\nDuration : 1h 52mn\nBit rate : 1 319 Kbps\nWidth : 720 pixels\nHeight : 480 pixels\nDisplay aspect ratio : 4:3\nFrame rate mode : Variable\nFrame rate : 23.976 fps\nMinimum frame rate : 22.222 fps\nMaximum frame rate : 25.641 fps\nColor space : YUV\nChroma subsampling : 4:2:0\nBit depth : 8 bits\nScan type : Progressive\nBits/(Pixel*Frame) : 0.159\nStream size : 1.04 GiB (91%)\nWriting library : x264 core 120\n\n\nAudio\nID : 2\nFormat : AAC\nFormat/Info : Advanced Audio Codec\nFormat profile : LC\nCodec ID : 40\nDuration : 1h 52mn\nBit rate mode : Constant\nBit rate : 125 Kbps\nChannel(s) : 2 channels\nChannel positions : Front: L R\nSampling rate : 48.0 KHz\nCompression mode : Lossy\nStream size : 100 MiB (9%)\nLanguage : English\n\nEnjoy!","torrent":{"xt":"urn:btih:93855b926c9b11c881f4fc5488e5aecc39af6012","amp;dn":"Fist+of+the+North+Star+%281986%29+%28HQ%29","amp;tr":["udp%3A%2F%2Ftracker.openbittorrent.com%3A80","udp%3A%2F%2Fopen.demonii.com%3A1337","udp%3A%2F%2Ftracker.coppersurfer.tk%3A6969","udp%3A%2F%2Fexodus.desync.com%3A6969"],"infoHash":"93855b926c9b11c881f4fc5488e5aecc39af6012","infoHashBuffer":{"type":"Buffer","data":[147,133,91,146,108,155,17,200,129,244,252,84,136,229,174,204,57,175,96,18]},"announce":[],"urlList":[]}}